<?xml version="1.0" standalone="no"?>
<!DOCTYPE svg PUBLIC "-//W3C//DTD SVG 1.0//EN" "http://www.w3.org/TR/2001/REC-SVG-20010904/DTD/svg10.dtd">
<svg xmlns="http://www.w3.org/2000/svg" xmlns:xlink="http://www.w3.org/1999/xlink" id="body_1" width="26" height="21">

<g transform="matrix(0.30232558 0 0 0.30232558 -0 0.069767706)">
    <path d="M85.0262 0.359649L83.105 2.59504L83.0512 2.70277L70.0248 17.8389L65.9849 22.5611C 65.9849 22.5611 38.8997 23.2434 38.4239 23.2434C 38.1009 23.2434 37.781 23.307 37.4826 23.4306C 37.1841 23.5542 36.913 23.7354 36.6845 23.9638C 36.4561 24.1922 36.275 24.4634 36.1513 24.7618C 36.0277 25.0603 35.9641 25.3802 35.9641 25.7032C 35.9591 26.0665 36.0375 26.4262 36.1931 26.7545C 36.3487 27.0829 36.5775 27.3712 36.8618 27.5974C 36.799 27.5974 36.7721 27.6872 36.7451 27.7141C 34.9416 29.5173 32.7339 30.8643 30.3054 31.6431C 27.8769 32.422 25.2976 32.6103 22.7817 32.1924C 20.2658 31.7746 17.8859 30.7626 15.8395 29.2406C 13.7932 27.7185 12.1394 25.7302 11.0156 23.4408C 10.8503 23.1538 10.7091 22.8535 10.5936 22.5431C 9.57605 20.107 9.17613 17.4573 9.42937 14.8295C 9.6826 12.2016 10.5811 9.67697 12.0452 7.48005C 13.5092 5.28313 15.4933 3.48195 17.8212 2.2366C 20.149 0.991261 22.7485 0.34032 25.3886 0.341677L25.3886 0.341677L85.0262 0.359649z" stroke="none" fill="#FF0000" fill-rule="nonzero" />
    <path d="M0 68.4271L1.9212 66.1917L1.98402 66.0839L14.9655 50.9479L19.0054 46.2257C 19.0054 46.2257 46.0906 45.5434 46.5664 45.5434C 47.2196 45.5434 47.8462 45.2845 48.3089 44.8234C 48.7717 44.3624 49.0328 43.7368 49.0352 43.0835C 49.0401 42.7202 48.9618 42.3606 48.8062 42.0322C 48.6506 41.7038 48.4218 41.4155 48.1374 41.1893C 48.1823 41.1597 48.2192 41.1196 48.2452 41.0726C 50.0464 39.2535 52.2571 37.8921 54.6923 37.1023C 57.1274 36.3126 59.7163 36.1174 62.2424 36.5331C 64.7684 36.9489 67.1582 37.9634 69.2119 39.4919C 71.2655 41.0204 72.9233 43.0185 74.0466 45.3189C 74.2137 45.605 74.3549 45.9054 74.4685 46.2167C 75.4908 48.6525 75.8944 51.3035 75.6432 53.9332C 75.392 56.5628 74.4939 59.0895 73.029 61.2878C 71.5641 63.486 69.5779 65.2876 67.2476 66.5317C 64.9172 67.7759 62.3152 68.4239 59.6736 68.4181L59.6736 68.4181L0 68.4271z" stroke="none" fill="#FF0000" fill-rule="nonzero" />
</g>
</svg>