<?xml version="1.0" encoding="utf-8"?>
<svg xmlns="http://www.w3.org/2000/svg" xmlns:xlink="http://www.w3.org/1999/xlink" style="margin: auto; background: none; display: block; shape-rendering: auto;" width="194px" height="194px" viewBox="0 0 120 120" preserveAspectRatio="xMidYMid">
<g transform="rotate(0 50 50)">
  <rect x="31.5" y="11.5" rx="13.26" ry="13.26" width="37" height="39" fill="#2ed118">
    <animate attributeName="opacity" values="1;0" keyTimes="0;1" dur="0.7633587786259541s" begin="-0.7124681933842238s" repeatCount="indefinite"></animate>
  </rect>
</g><g transform="rotate(24 50 50)">
  <rect x="31.5" y="11.5" rx="13.26" ry="13.26" width="37" height="39" fill="#2ed118">
    <animate attributeName="opacity" values="1;0" keyTimes="0;1" dur="0.7633587786259541s" begin="-0.6615776081424936s" repeatCount="indefinite"></animate>
  </rect>
</g><g transform="rotate(48 50 50)">
  <rect x="31.5" y="11.5" rx="13.26" ry="13.26" width="37" height="39" fill="#2ed118">
    <animate attributeName="opacity" values="1;0" keyTimes="0;1" dur="0.7633587786259541s" begin="-0.6106870229007633s" repeatCount="indefinite"></animate>
  </rect>
</g><g transform="rotate(72 50 50)">
  <rect x="31.5" y="11.5" rx="13.26" ry="13.26" width="37" height="39" fill="#2ed118">
    <animate attributeName="opacity" values="1;0" keyTimes="0;1" dur="0.7633587786259541s" begin="-0.559796437659033s" repeatCount="indefinite"></animate>
  </rect>
</g><g transform="rotate(96 50 50)">
  <rect x="31.5" y="11.5" rx="13.26" ry="13.26" width="37" height="39" fill="#2ed118">
    <animate attributeName="opacity" values="1;0" keyTimes="0;1" dur="0.7633587786259541s" begin="-0.5089058524173028s" repeatCount="indefinite"></animate>
  </rect>
</g><g transform="rotate(120 50 50)">
  <rect x="31.5" y="11.5" rx="13.26" ry="13.26" width="37" height="39" fill="#2ed118">
    <animate attributeName="opacity" values="1;0" keyTimes="0;1" dur="0.7633587786259541s" begin="-0.45801526717557245s" repeatCount="indefinite"></animate>
  </rect>
</g><g transform="rotate(144 50 50)">
  <rect x="31.5" y="11.5" rx="13.26" ry="13.26" width="37" height="39" fill="#2ed118">
    <animate attributeName="opacity" values="1;0" keyTimes="0;1" dur="0.7633587786259541s" begin="-0.4071246819338422s" repeatCount="indefinite"></animate>
  </rect>
</g><g transform="rotate(168 50 50)">
  <rect x="31.5" y="11.5" rx="13.26" ry="13.26" width="37" height="39" fill="#2ed118">
    <animate attributeName="opacity" values="1;0" keyTimes="0;1" dur="0.7633587786259541s" begin="-0.3562340966921119s" repeatCount="indefinite"></animate>
  </rect>
</g><g transform="rotate(192 50 50)">
  <rect x="31.5" y="11.5" rx="13.26" ry="13.26" width="37" height="39" fill="#2ed118">
    <animate attributeName="opacity" values="1;0" keyTimes="0;1" dur="0.7633587786259541s" begin="-0.30534351145038163s" repeatCount="indefinite"></animate>
  </rect>
</g><g transform="rotate(216 50 50)">
  <rect x="31.5" y="11.5" rx="13.26" ry="13.26" width="37" height="39" fill="#2ed118">
    <animate attributeName="opacity" values="1;0" keyTimes="0;1" dur="0.7633587786259541s" begin="-0.2544529262086514s" repeatCount="indefinite"></animate>
  </rect>
</g><g transform="rotate(240 50 50)">
  <rect x="31.5" y="11.5" rx="13.26" ry="13.26" width="37" height="39" fill="#2ed118">
    <animate attributeName="opacity" values="1;0" keyTimes="0;1" dur="0.7633587786259541s" begin="-0.2035623409669211s" repeatCount="indefinite"></animate>
  </rect>
</g><g transform="rotate(264 50 50)">
  <rect x="31.5" y="11.5" rx="13.26" ry="13.26" width="37" height="39" fill="#2ed118">
    <animate attributeName="opacity" values="1;0" keyTimes="0;1" dur="0.7633587786259541s" begin="-0.15267175572519082s" repeatCount="indefinite"></animate>
  </rect>
</g><g transform="rotate(288 50 50)">
  <rect x="31.5" y="11.5" rx="13.26" ry="13.26" width="37" height="39" fill="#2ed118">
    <animate attributeName="opacity" values="1;0" keyTimes="0;1" dur="0.7633587786259541s" begin="-0.10178117048346055s" repeatCount="indefinite"></animate>
  </rect>
</g><g transform="rotate(312 50 50)">
  <rect x="31.5" y="11.5" rx="13.26" ry="13.26" width="37" height="39" fill="#2ed118">
    <animate attributeName="opacity" values="1;0" keyTimes="0;1" dur="0.7633587786259541s" begin="-0.05089058524173028s" repeatCount="indefinite"></animate>
  </rect>
</g><g transform="rotate(336 50 50)">
  <rect x="31.5" y="11.5" rx="13.26" ry="13.26" width="37" height="39" fill="#2ed118">
    <animate attributeName="opacity" values="1;0" keyTimes="0;1" dur="0.7633587786259541s" begin="0s" repeatCount="indefinite"></animate>
  </rect>
</g>
<!-- [ldio] generated by https://loading.io/ --></svg>
